<?xml version="1.0" encoding="UTF-8" standalone="no"?>
<!-- Created with Inkscape (http://www.inkscape.org/) -->

<svg
   xmlns:dc="http://purl.org/dc/elements/1.1/"
   xmlns:cc="http://creativecommons.org/ns#"
   xmlns:rdf="http://www.w3.org/1999/02/22-rdf-syntax-ns#"
   xmlns:svg="http://www.w3.org/2000/svg"
   xmlns="http://www.w3.org/2000/svg"
   xmlns:sodipodi="http://sodipodi.sourceforge.net/DTD/sodipodi-0.dtd"
   xmlns:inkscape="http://www.inkscape.org/namespaces/inkscape"
   width="45.572651mm"
   height="33.566017mm"
   viewBox="0 0 161.4779 118.93471"
   id="svg4452"
   version="1.1"
   inkscape:version="0.91 r13725"
   sodipodi:docname="logo.svg">
  <defs
     id="defs4454" />
  <sodipodi:namedview
     id="base"
     pagecolor="#ffffff"
     bordercolor="#666666"
     borderopacity="1.0"
     inkscape:pageopacity="0.0"
     inkscape:pageshadow="2"
     inkscape:zoom="1"
     inkscape:cx="132.2716"
     inkscape:cy="179.3772"
     inkscape:document-units="px"
     inkscape:current-layer="g3552"
     showgrid="false"
     fit-margin-top="0"
     fit-margin-left="0"
     fit-margin-right="0"
     fit-margin-bottom="0"
     inkscape:window-width="1280"
     inkscape:window-height="741"
     inkscape:window-x="0"
     inkscape:window-y="27"
     inkscape:window-maximized="1" />
  <metadata
     id="metadata4457">
    <rdf:RDF>
      <cc:Work
         rdf:about="">
        <dc:format>image/svg+xml</dc:format>
        <dc:type
           rdf:resource="http://purl.org/dc/dcmitype/StillImage" />
        <dc:title></dc:title>
      </cc:Work>
    </rdf:RDF>
  </metadata>
  <g
     inkscape:label="Layer 1"
     inkscape:groupmode="layer"
     id="layer1"
     transform="translate(700.73895,1.3908647)">
    <g
       transform="translate(-99.737578,-985.77096)"
       style="font-style:normal;font-variant:normal;font-weight:normal;font-stretch:normal;font-size:40px;line-height:125%;font-family:Alef;-inkscape-font-specification:Alef;letter-spacing:0px;word-spacing:0px;fill:#000000;fill-opacity:1;stroke:none"
       id="g3552"
       inkscape:export-filename="/home/shaief/Shared/ProjectsSE/Creativeness/RazvanLogo/20131117_Raz_Tomesco_Photography_logo_black_on_white.png"
       inkscape:export-xdpi="300.24731"
       inkscape:export-ydpi="300.24731">
      <path
         d="m -600.75795,1043.9988 161.23448,0 0,6.2342 -139.78282,0 0,26.1253 -7.61078,0 0,-26.1253 -13.84088,0 z"
         id="path3530"
         inkscape:connector-curvature="0"
         sodipodi:nodetypes="ccccccccc"
         style="fill:#ffffff" />
      <g
         style="fill:#ffffff"
         id="g3522"
         transform="matrix(0.88615341,0,0,0.88615341,-55.634678,119.03417)">
        <path
           inkscape:connector-curvature="0"
           id="path3524"
           style="font-size:90px;fill:#ffffff"
           d="m -579.35743,976.51932 q 4.31425,0 8.12896,0.99908 3.86011,0.99909 6.81196,3.17893 2.99727,2.22524 4.67757,5.63122 1.72569,3.40599 1.72569,8.03813 0,4.63214 -1.72569,8.03822 -1.6803,3.4059 -4.67757,5.6311 -2.31606,1.7258 -5.1771,2.6794 -2.81561,0.9538 -6.03994,1.317 l -0.0454,0.091 q 1.31697,0.8629 2.90644,2.4524 1.58945,1.544 3.31515,3.6784 1.72572,2.1345 3.54224,4.6322 1.81652,2.4522 3.67846,5.177 l 9.44594,13.7603 -9.9909,0 -10.26338,-15.8946 q -2.77019,-4.3598 -4.81379,-7.0391 -1.99817,-2.6794 -3.8147,-4.2234 -1.77112,-1.5441 -3.63306,-2.089 -1.86194,-0.545 -4.31424,-0.545 l -1.72571,0 0,29.7911 -8.44683,0 0,-65.30417 20.43591,0 z m 0,28.88278 q 2.86102,0 5.22251,-0.6358 2.36149,-0.6358 4.04177,-1.9528 1.7257,-1.3623 2.67937,-3.45133 0.95368,-2.08905 0.95368,-4.99549 0,-2.90644 -0.95368,-4.99544 -0.95367,-2.089 -2.67937,-3.40599 -1.68028,-1.36239 -4.04177,-1.99818 -2.36149,-0.63579 -5.22251,-0.63579 l -11.98908,0 0,22.07082 11.98908,0 z" />
        <path
           inkscape:connector-curvature="0"
           id="path3526"
           style="font-size:90px;fill:#ffffff"
           d="m -495.61563,1041.8235 -8.58309,-22.2071 -25.84007,0 -8.5831,22.2071 -8.6739,0 25.8855,-65.30418 8.58308,0 25.8855,65.30418 -8.67392,0 z m -31.74379,-29.2007 20.48133,0 -10.26337,-26.56673 -10.21796,26.56673 z" />
        <path
           inkscape:connector-curvature="0"
           id="path3528"
           style="font-size:90px;fill:#ffffff"
           d="m -480.35676,976.51932 41.32597,0 0,6.08536 -31.83462,52.22522 32.10709,0 0,6.9936 -42.68836,0 0,-5.9946 31.92544,-52.31596 -30.83552,0 0,-6.99362 z" />
      </g>
      <path
         d="m -556.22421,1064.662 q 0,5.7231 -2.58414,8.7511 -2.58414,3.0281 -7.4195,3.0281 -4.78778,0 -7.40363,-3.0122 -2.6,-3.028 -2.6,-8.767 0,-5.7232 2.61585,-8.7354 2.61585,-3.0122 7.38778,-3.0122 4.83536,0 7.4195,3.0439 2.58414,3.0281 2.58414,8.7037 z m -3.05975,0 q 0,-4.4073 -1.7439,-6.833 -1.72804,-2.4256 -5.21584,-2.4256 -3.50364,0 -5.21584,2.4573 -1.71218,2.4415 -1.71218,6.8013 0,2.1402 0.39633,3.8365 0.4122,1.6805 1.23658,2.9171 0.84025,1.2207 2.17195,1.8866 1.34756,0.65 3.12316,0.65 3.4878,0 5.21584,-2.4256 1.7439,-2.4415 1.7439,-6.8646 z"
         id="path3532"
         inkscape:connector-curvature="0"
         style="fill:#ffffff" />
      <path
         d="m -532.40911,1053.279 4.42315,0 2.74268,22.7817 -2.90121,0 -2.37805,-19.1829 -0.15853,0 -6.29388,19.1829 -3.55121,0 -6.29389,-19.1829 -0.15854,0 -2.37804,19.1829 -2.90121,0 2.74267,-22.7817 4.42316,0 6.34145,19.7378 6.34145,-19.7378 z"
         id="path3534"
         inkscape:connector-curvature="0"
         style="fill:#ffffff" />
      <path
         d="m -521.27701,1053.2632 12.65119,0 0,2.4414 -9.67072,0 0,6.2939 6.84877,0 0,2.4415 -6.84877,0 0,9.1792 10.03535,0 0,2.4415 -13.01582,0 0,-22.7975 z"
         id="path3536"
         inkscape:connector-curvature="0"
         style="fill:#ffffff" />
      <path
         d="m -503.34361,1072.7473 q 0.65,0.2536 1.36341,0.4756 0.72926,0.222 1.47438,0.3805 0.76098,0.1585 1.52195,0.2537 0.76098,0.095 1.49024,0.095 1.25244,0 2.26707,-0.2854 1.01463,-0.2854 1.74389,-0.8244 0.72927,-0.5549 1.12561,-1.3476 0.39634,-0.8085 0.39634,-1.839 0,-1.0304 -0.38049,-1.6804 -0.36463,-0.6659 -1.07804,-1.1098 -0.69756,-0.4439 -1.72804,-0.7452 -1.03049,-0.317 -2.34634,-0.65 -1.45853,-0.3804 -2.69512,-0.8402 -1.22072,-0.4755 -2.12438,-1.2207 -0.8878,-0.7451 -1.39511,-1.839 -0.50732,-1.1097 -0.50732,-2.7586 0,-1.3475 0.53902,-2.4414 0.53902,-1.0939 1.52195,-1.8548 0.98292,-0.7769 2.36219,-1.1891 1.37926,-0.4122 3.0439,-0.4122 0.80853,0 1.64877,0.111 0.84024,0.095 1.66463,0.2695 0.82438,0.1744 1.61706,0.4281 0.79269,0.2536 1.49024,0.5548 l -0.95121,2.3463 q -0.57073,-0.2219 -1.17317,-0.4439 -0.58658,-0.2219 -1.25243,-0.3962 -0.66586,-0.1745 -1.42683,-0.2696 -0.74512,-0.111 -1.61706,-0.111 -0.87195,0 -1.66464,0.1903 -0.79268,0.1903 -1.41097,0.6024 -0.60243,0.3963 -0.96707,1.0463 -0.36463,0.65 -0.36463,1.5695 0,1.0306 0.36463,1.6964 0.38049,0.65 1.07804,1.0939 0.71342,0.4439 1.7439,0.7609 1.03049,0.3013 2.34633,0.6342 1.45854,0.3805 2.67927,0.8561 1.23658,0.4598 2.12438,1.2049 0.90366,0.7451 1.41097,1.8549 0.50732,1.1097 0.50732,2.7426 0,1.7281 -0.65,3.0122 -0.63414,1.2683 -1.79146,2.1086 -1.14146,0.8402 -2.72681,1.2524 -1.56952,0.4122 -3.42439,0.4122 -3.50365,0 -6.8012,-1.3476 l 0.95122,-2.3463 z"
         id="path3538"
         inkscape:connector-curvature="0"
         style="fill:#ffffff" />
      <path
         d="m -468.41525,1075.4107 q -1.47439,0.4597 -3.12317,0.7451 -1.63292,0.2854 -3.59877,0.2854 -4.8512,0 -7.32437,-2.9012 -2.47316,-2.9013 -2.47316,-8.5451 0,-5.9927 2.47316,-9.0366 2.47317,-3.0439 7.32437,-3.0439 1.83902,0 3.29755,0.3171 1.47439,0.317 2.8378,0.8243 l -0.82439,2.3464 q -0.64999,-0.2378 -1.28414,-0.4281 -0.63414,-0.1901 -1.28415,-0.317 -0.63414,-0.1268 -1.31584,-0.1903 -0.68171,-0.063 -1.42683,-0.063 -1.75975,0 -3.02804,0.6342 -1.26829,0.6183 -2.09268,1.8231 -0.82439,1.189 -1.22072,2.9171 -0.39634,1.7122 -0.39634,3.9 0,2.2512 0.39634,3.9792 0.39633,1.728 1.22072,2.9171 0.82439,1.1732 2.09268,1.7756 1.26829,0.6025 3.02804,0.6025 1.61707,0 3.0756,-0.2696 1.45854,-0.2695 2.90121,-0.7134 l 0.74513,2.4414 z"
         id="path3540"
         inkscape:connector-curvature="0"
         style="fill:#ffffff" />
      <path
         d="m -444.44173,1064.662 q 0,5.7231 -2.58415,8.7511 -2.58413,3.0281 -7.41948,3.0281 -4.7878,0 -7.40365,-3.0122 -2.59999,-3.028 -2.59999,-8.767 0,-5.7232 2.61585,-8.7354 2.61584,-3.0122 7.38779,-3.0122 4.83535,0 7.41948,3.0439 2.58415,3.0281 2.58415,8.7037 z m -3.05975,0 q 0,-4.4073 -1.7439,-6.833 -1.72805,-2.4256 -5.21584,-2.4256 -3.50365,0 -5.21584,2.4573 -1.71219,2.4415 -1.71219,6.8013 0,2.1402 0.39634,3.8365 0.41219,1.6805 1.23658,2.9171 0.84025,1.2207 2.17195,1.8866 1.34756,0.65 3.12316,0.65 3.48779,0 5.21584,-2.4256 1.7439,-2.4415 1.7439,-6.8646 z"
         id="path3542"
         inkscape:connector-curvature="0"
         style="fill:#ffffff" />
      <rect
         style="fill:#ffffff;stroke:none"
         id="rect3544"
         width="161.035"
         height="24.89818"
         x="-600.95795"
         y="1078.4166" />
      <g
         style="font-style:normal;font-variant:normal;font-weight:normal;font-stretch:normal;font-size:21.30213547px;line-height:125%;font-family:Alef;-inkscape-font-specification:Alef;letter-spacing:0px;word-spacing:0px;fill:#000000;fill-opacity:1;stroke:none"
         id="text3546">
        <path
           d="m -595.20778,1083.7175 q 1.09216,0 1.94507,0.3017 0.86332,0.2912 1.4562,0.8633 0.59288,0.5721 0.90493,1.4146 0.31204,0.8425 0.31204,1.9347 0,1.1857 -0.38485,2.0803 -0.38486,0.8841 -1.10255,1.477 -0.7177,0.5928 -1.73704,0.8945 -1.01934,0.3016 -2.27792,0.3016 -0.58248,0 -1.10255,-0.031 -0.50967,-0.042 -0.90492,-0.083 l 0,5.804 -2.902,0 0,-14.9573 5.79359,0 z m -2.89159,7.1666 q 0.33284,0.052 0.65529,0.083 0.33284,0.021 0.64489,0.021 0.80091,0 1.40419,-0.1352 0.61368,-0.1352 1.01934,-0.4472 0.41606,-0.3121 0.62409,-0.8113 0.20802,-0.4993 0.20802,-1.2378 0,-0.7281 -0.15602,-1.2274 -0.15602,-0.5097 -0.49927,-0.8217 -0.34324,-0.312 -0.88412,-0.4473 -0.54087,-0.1456 -1.31058,-0.1456 l -1.70583,0 0,5.1695 z"
           style="font-style:normal;font-variant:normal;font-weight:bold;font-stretch:normal;font-family:Alef;-inkscape-font-specification:'Alef Bold';fill:#000000"
           id="path5035"
           inkscape:connector-curvature="0" />
        <path
           d="m -575.0914,1083.7175 0,14.9573 -2.902,0 0,-7.2914 -6.61531,0 0,7.2914 -2.902,0 0,-14.9573 2.902,0 0,5.5336 6.61531,0 0,-5.5336 2.902,0 z"
           style="font-style:normal;font-variant:normal;font-weight:bold;font-stretch:normal;font-family:Alef;-inkscape-font-specification:'Alef Bold';fill:#000000"
           id="path5037"
           inkscape:connector-curvature="0" />
        <path
           d="m -565.15803,1083.4887 q 1.87225,0 3.16203,0.5721 1.28978,0.5617 2.09069,1.581 0.81131,1.0193 1.16496,2.4443 0.35365,1.4146 0.35365,3.1205 0,1.7058 -0.35365,3.1308 -0.35365,1.4146 -1.16496,2.4339 -0.80091,1.0194 -2.09069,1.5915 -1.28978,0.5616 -3.16203,0.5616 -1.84106,0 -3.13084,-0.5512 -1.28977,-0.5513 -2.10109,-1.5603 -0.80091,-1.0089 -1.17536,-2.4339 -0.36405,-1.425 -0.36405,-3.1724 0,-1.7475 0.36405,-3.1725 0.37445,-1.425 1.17536,-2.4339 0.81132,-1.0089 2.10109,-1.5602 1.28978,-0.5513 3.13084,-0.5513 z m 0,2.1323 q -1.09216,0 -1.83066,0.3537 -0.7281,0.3536 -1.17536,1.0609 -0.43686,0.6969 -0.62408,1.7474 -0.18723,1.0402 -0.18723,2.4236 0,1.3834 0.18723,2.4339 0.18722,1.0402 0.62408,1.7475 0.44726,0.6968 1.17536,1.0505 0.7385,0.3536 1.83066,0.3536 1.08174,0 1.80984,-0.3432 0.73851,-0.3537 1.17537,-1.0505 0.44726,-0.6969 0.63448,-1.7475 0.19763,-1.0505 0.19763,-2.4443 0,-1.3938 -0.19763,-2.4444 -0.18722,-1.0505 -0.63448,-1.7474 -0.43686,-0.6969 -1.17537,-1.0401 -0.7281,-0.3537 -1.80984,-0.3537 z"
           style="font-style:normal;font-variant:normal;font-weight:bold;font-stretch:normal;font-family:Alef;-inkscape-font-specification:'Alef Bold';fill:#000000"
           id="path5039"
           inkscape:connector-curvature="0" />
        <path
           d="m -544.50079,1083.7175 0,2.1323 -4.3686,0 0,12.825 -2.902,0 0,-12.825 -4.41021,0 0,-2.1323 11.68081,0 z"
           style="font-style:normal;font-variant:normal;font-weight:bold;font-stretch:normal;font-family:Alef;-inkscape-font-specification:'Alef Bold';fill:#000000"
           id="path5041"
           inkscape:connector-curvature="0" />
        <path
           d="m -535.53475,1083.4887 q 1.87226,0 3.16203,0.5721 1.28978,0.5617 2.09069,1.581 0.81131,1.0193 1.16496,2.4443 0.35365,1.4146 0.35365,3.1205 0,1.7058 -0.35365,3.1308 -0.35365,1.4146 -1.16496,2.4339 -0.80091,1.0194 -2.09069,1.5915 -1.28977,0.5616 -3.16203,0.5616 -1.84106,0 -3.13083,-0.5512 -1.28978,-0.5513 -2.10109,-1.5603 -0.80091,-1.0089 -1.17536,-2.4339 -0.36405,-1.425 -0.36405,-3.1724 0,-1.7475 0.36405,-3.1725 0.37445,-1.425 1.17536,-2.4339 0.81131,-1.0089 2.10109,-1.5602 1.28977,-0.5513 3.13083,-0.5513 z m 0,2.1323 q -1.09215,0 -1.83065,0.3537 -0.7281,0.3536 -1.17537,1.0609 -0.43686,0.6969 -0.62408,1.7474 -0.18723,1.0402 -0.18723,2.4236 0,1.3834 0.18723,2.4339 0.18722,1.0402 0.62408,1.7475 0.44727,0.6968 1.17537,1.0505 0.7385,0.3536 1.83065,0.3536 1.08175,0 1.80985,-0.3432 0.7385,-0.3537 1.17536,-1.0505 0.44726,-0.6969 0.63449,-1.7475 0.19762,-1.0505 0.19762,-2.4443 0,-1.3938 -0.19762,-2.4444 -0.18723,-1.0505 -0.63449,-1.7474 -0.43686,-0.6969 -1.17536,-1.0401 -0.7281,-0.3537 -1.80985,-0.3537 z"
           style="font-style:normal;font-variant:normal;font-weight:bold;font-stretch:normal;font-family:Alef;-inkscape-font-specification:'Alef Bold';fill:#000000"
           id="path5043"
           inkscape:connector-curvature="0" />
        <path
           d="m -513.94138,1097.9467 q -0.45766,0.2288 -1.04014,0.4161 -0.58248,0.1768 -1.24817,0.3016 -0.6657,0.1248 -1.38339,0.1872 -0.7177,0.073 -1.4354,0.073 -1.82025,0 -3.18284,-0.3744 -1.36259,-0.3745 -2.26751,-1.2482 -0.90493,-0.8737 -1.35219,-2.3091 -0.44726,-1.4458 -0.44726,-3.5885 0,-2.2363 0.46806,-3.7549 0.46807,-1.5186 1.34179,-2.4444 0.87372,-0.9361 2.11149,-1.3417 1.24817,-0.4057 2.78758,-0.4057 0.65529,0 1.32099,0.073 0.67609,0.062 1.33138,0.1976 0.65529,0.1353 1.25857,0.3433 0.61369,0.1976 1.14416,0.4577 l -0.80091,2.0282 q -1.05055,-0.4992 -2.08029,-0.7177 -1.01934,-0.2184 -1.93466,-0.2184 -1.04015,0 -1.79945,0.3329 -0.7489,0.3224 -1.23777,0.9985 -0.48887,0.6657 -0.7281,1.7058 -0.22883,1.0298 -0.22883,2.434 0,1.4874 0.23923,2.5587 0.23923,1.061 0.7489,1.7579 0.52007,0.6969 1.31058,1.0297 0.80091,0.3224 1.92427,0.3224 0.56168,0 1.14416,-0.083 0.59288,-0.083 1.19616,-0.2288 l 0,-3.6093 -2.38193,0 0,-2.1115 5.22152,0 0,7.2186 z"
           style="font-style:normal;font-variant:normal;font-weight:bold;font-stretch:normal;font-family:Alef;-inkscape-font-specification:'Alef Bold';fill:#000000"
           id="path5045"
           inkscape:connector-curvature="0" />
        <path
           d="m -505.07936,1083.7175 q 1.00894,0 1.86186,0.2601 0.85292,0.2496 1.477,0.7593 0.62409,0.5097 0.96734,1.2898 0.35364,0.7801 0.35364,1.8202 0,0.8425 -0.28083,1.5394 -0.28084,0.6969 -0.79051,1.217 -0.50967,0.5097 -1.20657,0.8321 -0.6969,0.3225 -1.53941,0.4265 l -0.0104,0.031 q 0.41605,0.2392 0.81131,0.6761 0.39525,0.4264 0.7593,0.9361 0.37445,0.5097 0.7073,1.0401 0.34325,0.5305 0.62409,0.9778 l 2.05948,3.1516 -3.27645,0 q -0.36405,-0.6033 -0.82171,-1.373 -0.44727,-0.7801 -0.90493,-1.5498 -0.44726,-0.7697 -0.85292,-1.425 -0.39525,-0.6657 -0.64489,-1.0401 -0.23923,-0.3433 -0.44726,-0.5825 -0.19762,-0.2393 -0.40565,-0.3849 -0.20803,-0.1456 -0.44726,-0.208 -0.22884,-0.062 -0.52008,-0.073 l -0.0832,0 0,6.6361 -2.902,0 0,-14.9573 5.51276,0 z m -1.11295,6.3241 q 0.67609,0 1.19616,-0.104 0.53048,-0.1144 0.88413,-0.364 0.36405,-0.2601 0.55127,-0.6761 0.18723,-0.4161 0.18723,-1.0194 0,-0.6033 -0.18723,-1.0193 -0.18722,-0.4161 -0.55127,-0.6657 -0.35365,-0.2601 -0.88413,-0.3641 -0.52007,-0.1144 -1.19616,-0.1144 l -1.49781,0 0,4.327 1.49781,0 z"
           style="font-style:normal;font-variant:normal;font-weight:bold;font-stretch:normal;font-family:Alef;-inkscape-font-specification:'Alef Bold';fill:#000000"
           id="path5047"
           inkscape:connector-curvature="0" />
        <path
           d="m -489.70604,1083.7175 5.64798,14.9573 -2.9332,0 -1.70584,-4.5974 -4.93028,0 -1.70583,4.5974 -2.93321,0 5.64798,-14.9573 2.9124,0 z m -1.4562,3.0893 -1.69543,5.1799 3.39087,0 -1.69544,-5.1799 z"
           style="font-style:normal;font-variant:normal;font-weight:bold;font-stretch:normal;font-family:Alef;-inkscape-font-specification:'Alef Bold';fill:#000000"
           id="path5049"
           inkscape:connector-curvature="0" />
        <path
           d="m -475.88253,1083.7175 q 1.09215,0 1.94506,0.3017 0.86332,0.2912 1.4562,0.8633 0.59289,0.5721 0.90493,1.4146 0.31204,0.8425 0.31204,1.9347 0,1.1857 -0.38485,2.0803 -0.38485,0.8841 -1.10255,1.477 -0.7177,0.5928 -1.73704,0.8945 -1.01934,0.3016 -2.27792,0.3016 -0.58248,0 -1.10255,-0.031 -0.50967,-0.042 -0.90492,-0.083 l 0,5.804 -2.902,0 0,-14.9573 5.7936,0 z m -2.8916,7.1666 q 0.33284,0.052 0.65529,0.083 0.33284,0.021 0.64489,0.021 0.80091,0 1.40419,-0.1352 0.61368,-0.1352 1.01934,-0.4472 0.41606,-0.3121 0.62409,-0.8113 0.20803,-0.4993 0.20803,-1.2378 0,-0.7281 -0.15603,-1.2274 -0.15602,-0.5097 -0.49927,-0.8217 -0.34324,-0.312 -0.88412,-0.4473 -0.54087,-0.1456 -1.31058,-0.1456 l -1.70583,0 0,5.1695 z"
           style="font-style:normal;font-variant:normal;font-weight:bold;font-stretch:normal;font-family:Alef;-inkscape-font-specification:'Alef Bold';fill:#000000"
           id="path5051"
           inkscape:connector-curvature="0" />
        <path
           d="m -455.76616,1083.7175 0,14.9573 -2.902,0 0,-7.2914 -6.61532,0 0,7.2914 -2.902,0 0,-14.9573 2.902,0 0,5.5336 6.61532,0 0,-5.5336 2.902,0 z"
           style="font-style:normal;font-variant:normal;font-weight:bold;font-stretch:normal;font-family:Alef;-inkscape-font-specification:'Alef Bold';fill:#000000"
           id="path5053"
           inkscape:connector-curvature="0" />
        <path
           d="m -439.96638,1083.7175 -5.14871,8.2172 0,6.7401 -2.9124,0 0,-6.7401 -5.14871,-8.2172 3.16203,0 3.44288,6.2721 3.44287,-6.2721 3.16204,0 z"
           style="font-style:normal;font-variant:normal;font-weight:bold;font-stretch:normal;font-family:Alef;-inkscape-font-specification:'Alef Bold';fill:#000000"
           id="path5055"
           inkscape:connector-curvature="0" />
      </g>
    </g>
  </g>
</svg>
